# xmcd CD database file
#
# Track frame offsets:
#	182
#	50435
#	93902
#	119425
#	157412
#	201000
#	233115
#
# Disc length: 3608 seconds
#
# Revision: 0
# Processed by: cddbd v1.5.2PL0 Copyright (c) Steve Scherf et al.
# Submitted via: CDex 1.51
#
DISCID=5b0e1607
DTITLE=Kenny Werner - Meditation
DYEAR=1993
DGENRE=Jazz
TTITLE0=Meditations No.1
TTITLE1=The Contenplation Suite
TTITLE2=Stella By Starlight
TTITLE3=Meditation No. 2
TTITLE4=Melodee No. 2
TTITLE5=Meditation No. 3
TTITLE6=Giant Steps
EXTD=YEAR: 1993
EXTT0=
EXTT1=
EXTT2=
EXTT3=
EXTT4=
EXTT5=
EXTT6=
PLAYORDER=
